<?xml version="1.0" encoding="UTF-8" standalone="no"?>
<!-- Created with Inkscape (http://www.inkscape.org/) -->
<svg
   xmlns:dc="http://purl.org/dc/elements/1.1/"
   xmlns:cc="http://web.resource.org/cc/"
   xmlns:rdf="http://www.w3.org/1999/02/22-rdf-syntax-ns#"
   xmlns:svg="http://www.w3.org/2000/svg"
   xmlns="http://www.w3.org/2000/svg"
   xmlns:xlink="http://www.w3.org/1999/xlink"
   xmlns:sodipodi="http://sodipodi.sourceforge.net/DTD/sodipodi-0.dtd"
   xmlns:inkscape="http://www.inkscape.org/namespaces/inkscape"
   width="210mm"
   height="297mm"
   id="svg2"
   sodipodi:version="0.32"
   inkscape:version="0.44"
   sodipodi:docbase="/home/luis/csl-csknocking/Common/Artwork"
   sodipodi:docname="sharpknocking.svg">
  <defs
     id="defs4">
    <linearGradient
       id="linearGradient6609">
      <stop
         id="stop6611"
         offset="0"
         style="stop-color:#7f4f00;stop-opacity:1;" />
      <stop
         id="stop6613"
         offset="1"
         style="stop-color:#ffe78d;stop-opacity:1;" />
    </linearGradient>
    <linearGradient
       inkscape:collect="always"
       id="linearGradient4813">
      <stop
         style="stop-color:#ffe78d;stop-opacity:1;"
         offset="0"
         id="stop4815" />
      <stop
         style="stop-color:#ffe78d;stop-opacity:0;"
         offset="1"
         id="stop4817" />
    </linearGradient>
    <linearGradient
       inkscape:collect="always"
       xlink:href="#linearGradient4813"
       id="linearGradient4819"
       x1="350"
       y1="315.21933"
       x2="352.85715"
       y2="809.50507"
       gradientUnits="userSpaceOnUse" />
    <linearGradient
       inkscape:collect="always"
       xlink:href="#linearGradient6609"
       id="linearGradient6607"
       x1="60.92857"
       y1="388.79074"
       x2="144.78571"
       y2="388.79074"
       gradientUnits="userSpaceOnUse" />
    <linearGradient
       inkscape:collect="always"
       xlink:href="#linearGradient6609"
       id="linearGradient11076"
       x1="153.8159"
       y1="519.7301"
       x2="379.53015"
       y2="462.58722"
       gradientUnits="userSpaceOnUse" />
  </defs>
  <sodipodi:namedview
     id="base"
     pagecolor="#ffffff"
     bordercolor="#666666"
     borderopacity="1.0"
     inkscape:pageopacity="0.0"
     inkscape:pageshadow="2"
     inkscape:zoom="0.35"
     inkscape:cx="264.37657"
     inkscape:cy="669.1918"
     inkscape:document-units="px"
     inkscape:current-layer="layer1"
     inkscape:window-width="889"
     inkscape:window-height="629"
     inkscape:window-x="71"
     inkscape:window-y="69" />
  <metadata
     id="metadata7">
    <rdf:RDF>
      <cc:Work
         rdf:about="">
        <dc:format>image/svg+xml</dc:format>
        <dc:type
           rdf:resource="http://purl.org/dc/dcmitype/StillImage" />
      </cc:Work>
    </rdf:RDF>
  </metadata>
  <g
     inkscape:label="Capa 1"
     inkscape:groupmode="layer"
     id="layer1">
    <path
       style="fill:url(#linearGradient6607);fill-opacity:1.0;fill-rule:evenodd;stroke:black;stroke-width:1px;stroke-linecap:butt;stroke-linejoin:miter;stroke-opacity:1"
       d="M 112.85714,498.07647 C 72.857143,422.36218 70,420.93361 70,420.93361 L 61.428571,330.93361 L 77.142857,303.79075 L 144.28571,279.50504 L 112.85714,498.07647 z "
       id="path5714"
       inkscape:export-filename="/home/luis/sharpknocking logo.jpg"
       inkscape:export-xdpi="110.28138"
       inkscape:export-ydpi="110.28138" />
    <path
       style="fill:url(#linearGradient4819);fill-opacity:1.0;fill-rule:evenodd;stroke:none;stroke-width:1px;stroke-linecap:butt;stroke-linejoin:miter;stroke-opacity:1"
       d="M 222.85714,649.50504 C 117.14286,526.6479 117.14286,506.6479 117.14286,506.6479 L 160,212.36218 L 191.42857,175.21933 L 228.57143,166.6479 L 262.85714,190.93361 C 262.85714,190.93361 320,172.36218 368.57142,162.36218 C 390.428,157.86229 408.57143,189.50504 408.57143,189.50504 L 480,195.21933 L 580,280.93361 L 620,589.50504 L 688.57143,652.36218 C 441.90476,661.4098 431.78786,704.15005 222.85714,649.50504 z "
       id="path3041"
       sodipodi:nodetypes="ccccccscccccc"
       inkscape:export-filename="/home/luis/sharpknocking logo.jpg"
       inkscape:export-xdpi="110.28138"
       inkscape:export-ydpi="110.28138" />
    <path
       style="opacity:0.54017861;fill:url(#linearGradient11076);fill-opacity:1.0;fill-rule:evenodd;stroke:none;stroke-width:1px;stroke-linecap:butt;stroke-linejoin:miter;stroke-opacity:1"
       d="M 228.10162,655.12424 C 122.38734,532.26711 122.38734,512.26711 122.38734,512.26711 L 165.24448,217.98139 L 196.67305,180.83854 L 233.81591,172.26711 L 268.10162,196.55282 C 268.10162,196.55282 325.24448,177.98139 373.8159,167.98139 C 395.67248,163.4815 413.81591,195.12425 413.81591,195.12425 L 485.24448,200.83854 L 585.24448,286.55282 L 625.24448,595.12425 L 693.81587,657.98144 C 467.97824,663.76504 467.59186,713.75664 228.10162,655.12424 z "
       id="path6615"
       sodipodi:nodetypes="ccccccscccccc"
       inkscape:export-filename="/home/luis/sharpknocking logo.jpg"
       inkscape:export-xdpi="110.28138"
       inkscape:export-ydpi="110.28138" />
    <path
       style="fill:black;fill-opacity:1;fill-rule:nonzero;stroke:none;stroke-width:1px;stroke-linecap:butt;stroke-linejoin:miter;stroke-opacity:1"
       d="M 374.97509,153.94686 C 365.90466,154.38903 356.93582,154.49806 348.28759,157.94686 C 339.29792,161.14292 330.3541,164.44969 321.81884,168.75936 C 314.09966,172.33287 306.44023,176.10101 298.41259,178.94686 C 292.15543,180.6153 285.94454,182.64501 279.38134,182.63436 C 273.3364,182.22573 267.48734,182.19404 261.97509,179.13436 C 256.48979,175.45349 250.99795,171.91545 246.28759,167.16561 C 241.20526,163.66723 236.77132,159.94405 230.25634,159.57186 C 208.6712,161.18536 199.90578,165.78955 179.10009,180.25936 C 176.13282,181.89131 174.89815,182.73982 175.10009,182.97811 C 168.63873,187.5197 160.72846,193.84938 156.06884,199.41561 C 151.04737,206.51349 145.82644,213.20801 144.03759,222.04061 C 141.59107,232.84716 139.58616,243.70787 138.78759,254.79061 C 137.99139,262.5623 137.27847,270.32374 136.56884,278.10311 C 119.70071,283.73578 85.239736,294.96651 68.225086,307.88436 C 62.158566,313.98355 55.755616,319.68688 52.100086,327.72811 C 48.300786,336.3136 44.962206,344.92768 44.381336,354.44686 C 43.655286,364.89023 43.128606,375.33018 44.100086,385.79061 C 45.216356,396.78593 46.521366,407.77467 49.131336,418.54061 C 51.730336,429.42294 54.372106,440.32877 58.037586,450.91561 C 61.753346,461.48238 65.492316,472.04072 69.881336,482.35311 C 74.440126,492.51221 79.106706,502.61624 84.412586,512.41561 C 89.620346,521.9194 94.902666,531.36875 100.78759,540.47811 C 106.42662,549.1644 112.07382,557.87493 118.94384,565.66561 C 144.19665,599.13797 197.90086,626.52567 223.84533,658.26015 L 239.63213,645.47145 C 198.54055,607.87319 126.50544,546.84856 136.22509,483.60311 C 137.57379,475.11727 139.37585,466.70557 141.10009,458.29061 C 143.16785,448.9073 145.04788,439.48353 146.81884,430.04061 C 148.49899,419.98229 150.07712,409.89553 151.66259,399.82186 C 153.33993,389.31423 155.02915,378.80989 156.63134,368.29061 C 158.40395,357.51238 159.88491,346.71527 161.28759,335.88436 C 162.82748,324.89525 164.11368,313.87942 165.35009,302.85311 C 166.444,291.70223 167.5979,280.53194 168.72509,269.38436 C 169.71069,258.13947 170.74401,246.92714 171.88134,235.69686 C 172.62729,224.52284 174.75128,213.62654 177.41259,202.79061 C 178.5639,198.12608 180.63941,194.00064 183.06884,190.10311 C 183.7032,190.51369 184.22399,190.98606 184.50634,191.57186 C 187.71955,198.17344 189.51872,205.02735 190.60009,212.35311 L 196.75634,208.19686 C 196.14801,199.83238 196.47581,191.88778 197.88134,183.63436 C 198.03491,182.50312 198.15351,181.34717 198.28759,180.19686 C 203.20755,181.42342 207.1429,184.47742 211.41259,187.29061 C 216.25279,191.87173 221.69792,195.5177 227.16259,199.22811 C 228.65012,200.11235 230.1834,200.72196 231.72509,201.19686 C 234.27152,202.52617 236.73611,203.84893 237.78759,206.25936 C 240.74392,216.66739 240.85403,227.3853 241.19384,238.13436 C 241.35526,243.86092 241.13079,249.59677 241.03759,255.32186 L 255.10009,247.19686 C 254.80844,241.64704 254.44115,236.09803 254.31884,230.54061 C 254.02694,219.1305 252.29936,218.14523 253.41259,206.79061 C 254.00972,202.59004 255.6393,203.01269 257.00634,200.79061 C 259.29176,200.17875 261.56932,199.51081 263.85009,198.88436 C 272.08687,195.84844 279.99151,192.0184 287.94384,188.32186 C 296.55365,183.95699 305.59064,180.6209 314.66259,177.38436 C 323.12813,173.97788 331.85793,174.0014 340.72509,173.72811 C 348.52858,174.0368 354.69343,177.90657 361.28759,181.44686 C 367.44494,186.25633 373.6212,190.9873 379.85009,195.69686 C 383.1507,198.11877 386.72268,200.03282 390.38134,201.72811 C 395.45412,205.95594 391.81291,209.35059 391.00634,211.66561 C 388.46103,217.88622 385.59239,223.96589 382.78759,230.07186 C 380.55472,234.07827 378.41299,238.13529 376.22509,242.16561 L 392.00634,233.07186 C 394.31247,228.84806 396.35343,224.44955 399.25634,220.57186 C 402.88336,214.60064 404.56635,209.58018 410.75634,208.47811 C 414.5882,208.55125 418.38207,207.84809 422.41259,207.22811 C 428.81033,204.44108 435.46964,202.90651 442.19384,201.35311 C 448.42694,200.23803 452.74069,203.55644 458.00634,205.79061 C 463.0808,209.49396 466.77622,214.57221 470.72509,219.35311 C 474.9176,224.75764 479.75535,229.54778 484.50634,234.44686 C 485.35429,235.32752 486.25135,236.15453 487.16259,236.94686 C 491.52741,240.79531 497.14099,243.49207 488.88134,254.63436 C 484.11692,260.69282 480.22866,267.30812 476.41259,273.97811 C 475.79505,275.21204 475.15512,276.43167 474.53759,277.66561 L 491.60009,267.82186 C 492.20384,266.59589 492.80886,265.39157 493.41259,264.16561 C 497.29495,257.47846 500.33193,247.77009 505.00634,248.41561 C 511.86894,251.31788 518.80934,253.99914 525.69384,256.85311 C 533.1272,260.38463 539.51732,265.47665 546.03759,270.38436 C 552.65191,275.64195 557.27775,282.64422 562.25634,289.32186 C 567.29951,296.65619 570.44721,304.89608 573.53759,313.16561 C 576.44212,322.04142 578.15763,331.23326 579.91259,340.38436 C 581.75272,350.14722 582.87456,360.00709 583.85009,369.88436 C 584.70882,380.22269 585.27323,390.59362 585.91259,400.94686 C 586.66582,411.64937 587.37819,422.34515 588.22509,433.04061 C 589.21118,443.9994 590.57233,454.92207 591.81884,465.85311 C 593.10235,476.92536 593.98688,488.02027 594.78759,499.13436 C 595.47908,510.3312 595.68419,521.5465 595.72509,532.75936 C 595.49492,543.32574 595.43653,553.91174 595.41259,564.47811 C 595.34853,573.75276 594.52038,582.97251 593.63134,592.19686 C 593.27654,600.45387 590.224,607.78285 587.35009,615.32186 C 585.09875,620.0312 581.7598,623.80804 578.19384,627.41561 C 577.70521,627.5719 577.21372,627.72807 576.72509,627.88436 L 544.22509,646.63436 C 546.18565,646.0678 548.1708,645.5134 550.13134,644.94686 C 555.2911,642.93265 560.37704,640.70968 565.38134,638.32186 C 568.16871,637.82538 589.89419,626.01907 592.00634,623.41561 C 618.20896,598.24953 637.77021,631.5418 661.85279,648.87849 C 679.89323,658.88471 666.98321,652.02266 686.50476,661.23319 L 696.44542,653.64293 C 663.69691,634.9559 652.38,619.15577 637.40751,588.98826 C 634.15578,581.4505 631.25112,572.8906 629.72509,564.63436 C 629.40998,562.48034 629.02389,560.55837 628.60009,558.82186 C 628.84339,554.23993 629.01139,549.63158 629.03759,545.04061 C 628.88249,534.57205 628.63487,524.1029 628.85009,513.63436 C 628.81637,502.41706 628.59633,491.21112 627.91259,480.00936 C 627.11784,468.88986 626.27358,457.77582 625.00634,446.69686 C 623.77694,435.75109 622.41898,424.82856 621.47509,413.85311 C 620.66233,403.13684 619.96434,392.38941 619.25634,381.66561 C 618.66286,371.28435 618.15147,360.90881 617.35009,350.54061 C 616.42348,340.63119 615.3568,330.75213 613.60009,320.94686 C 611.92262,311.75741 610.30894,302.51767 607.44384,293.60311 C 604.41691,285.30501 601.29577,277.04851 596.31884,269.66561 C 591.4121,262.93664 586.86286,255.87449 580.22509,250.63436 C 573.7105,245.71216 567.34742,240.59187 559.88134,237.10311 C 552.36973,233.97864 544.78009,231.07228 537.35009,227.75936 C 530.96036,223.7552 524.35103,220.08159 519.10009,214.50936 C 514.4239,209.56027 509.69394,204.63806 505.53759,199.22811 C 501.67892,194.42566 498.05994,189.33397 493.19384,185.47811 C 487.78388,183.2597 483.39475,179.93758 477.00634,181.25936 C 470.29854,182.87969 463.6433,184.42512 457.22509,187.13436 C 450.1832,188.24528 443.6276,189.63794 436.56884,187.07186 C 428.81143,183.90115 420.88348,181.11002 414.10009,175.94686 C 407.958,171.19699 401.84164,166.38544 395.81884,161.47811 C 389.12113,157.95447 382.88297,154.12167 374.97509,153.94686 z M 337.03759,277.57186 L 300.19384,298.85311 C 301.22041,303.22139 300.97791,307.756 301.13134,312.19686 C 301.65791,323.49698 301.91245,334.78955 301.97509,346.10311 C 290.49509,343.56222 279.05044,340.81595 268.06884,336.57186 C 263.47695,334.17235 258.55484,332.20968 254.53759,328.82186 L 217.75634,350.07186 C 223.29474,352.26508 228.85827,354.13822 234.50634,355.94686 C 253.39331,359.59444 272.14447,363.88355 291.16259,366.79061 C 294.99046,367.4923 298.81825,368.11237 302.66259,368.66561 C 304.42592,397.80603 303.0518,426.98786 300.72509,456.07186 C 300.70037,456.51069 300.65661,456.94557 300.63134,457.38436 C 280.30693,452.44805 260.24703,446.31263 241.88134,436.41561 C 235.39753,432.26174 228.71114,428.24476 223.13134,422.91561 L 186.28759,444.16561 C 194.30211,447.44715 202.01204,451.3709 209.94384,454.85311 C 239.38584,463.59183 269.44133,469.84535 299.38134,476.57186 C 297.60299,500.18141 295.08921,523.715 292.03759,547.19686 C 290.45344,560.12874 286.88325,572.56738 283.38134,585.04061 L 314.69384,566.94686 C 317.31632,554.99486 320.10621,543.0883 320.50634,530.75936 C 321.62638,514.3455 322.32671,497.93718 323.10009,481.50936 C 345.63906,485.78719 368.34813,489.02415 391.16259,491.41561 C 390.90434,493.90415 390.67404,496.39613 390.41259,498.88436 C 388.78856,519.48021 385.76157,539.81912 380.25634,559.72811 C 378.41508,565.08454 377.70372,567.20879 377.35009,568.25936 C 377.8415,566.685 378.27186,564.9566 374.10009,575.88436 L 405.35009,557.85311 C 409.07333,547.16965 408.66458,548.89053 408.22509,550.44686 C 408.53793,549.42189 409.2058,547.33962 410.85009,542.07186 C 414.97327,526.10914 417.29281,509.98694 418.22509,493.60311 C 432.03604,494.44864 445.85434,495.30701 459.66259,496.19686 L 484.50634,481.85311 C 466.7646,481.08572 449.01778,480.34175 431.35009,478.44686 C 427.26273,478.03874 423.15529,477.62566 419.06884,477.19686 C 420.88177,453.72613 423.79268,430.37938 426.22509,406.97811 C 427.07888,396.67605 427.48783,386.34912 427.56884,376.00936 C 440.87033,376.64888 454.17718,377.36591 467.47509,378.07186 L 492.94384,363.38436 C 471.13018,363.56923 449.2982,363.23939 427.50634,362.22811 C 427.40838,357.27766 427.23244,352.32752 427.00634,347.38436 C 426.15158,335.66408 425.65496,323.98439 425.81884,312.22811 C 425.63849,307.3702 425.16138,302.40516 425.60009,297.57186 L 388.75634,318.85311 C 390.18019,323.1776 390.55293,327.7259 391.22509,332.19686 C 391.92703,341.58429 393.21685,350.8699 394.41259,360.19686 C 373.14929,358.53605 351.95602,356.11693 330.97509,352.25936 C 331.21836,348.84089 331.44036,345.42716 331.69384,342.00936 C 332.22901,325.36816 333.1756,308.69765 335.72509,292.22811 C 336.0796,287.34965 336.28276,282.40728 337.03759,277.57186 z M 135.94384,285.13436 C 135.84393,286.25957 135.73013,287.384 135.63134,288.50936 C 134.69049,297.74559 133.72353,306.99149 132.78759,316.22811 C 124.44177,315.80238 116.23337,313.95922 108.06884,312.19686 L 98.225086,317.85311 C 107.09495,319.36007 116.25082,320.55346 124.28759,324.85311 C 126.72587,325.82582 129.26801,326.68343 131.47509,328.04061 C 130.43347,337.0546 129.35353,346.05672 128.06884,355.04061 C 126.64796,365.88759 125.16779,376.7198 123.35009,387.50936 C 121.71644,398.05437 119.98679,408.60471 118.25634,419.13436 C 116.61343,429.24432 114.96895,439.35378 113.22509,449.44686 C 111.61973,457.72782 109.9338,465.97113 108.06884,474.19686 C 106.36524,470.54975 104.68406,466.87105 103.03759,463.19686 C 98.659506,452.8811 94.878486,442.35647 91.162586,431.79061 C 87.509706,421.19767 84.883326,410.30067 82.287586,399.41561 C 79.664406,388.63007 78.393166,377.62927 77.381336,366.60311 C 76.388506,356.08362 77.105996,345.55789 77.943836,335.07186 C 78.632006,325.4655 82.103096,316.7787 86.006336,308.13436 C 89.737386,300.07464 98.694426,298.96717 105.16259,294.97811 C 101.56368,295.93132 128.90745,287.34657 135.94384,285.13436 z M 329.63134,371.57186 C 350.57916,373.17801 371.63587,373.58068 392.60009,374.57186 C 393.84049,374.61481 395.07853,374.68289 396.31884,374.72811 C 398.05783,391.05812 397.42419,407.51317 396.88134,423.91561 C 395.97192,440.71479 394.54628,457.48754 392.91259,474.22811 C 371.42213,471.57292 350.00117,468.2742 328.81884,463.69686 C 327.23976,463.35309 325.65254,463.01029 324.06884,462.66561 C 324.44817,455.72585 324.84286,448.78711 325.35009,441.85311 C 326.71219,418.42195 328.07759,394.98918 329.63134,371.57186 z "
       id="path2069"
       sodipodi:nodetypes="cccccccccccccccccccccccccccccccccccccccccccccccccccccccccccccccccccccccccccccccccccccccccccccccccccccccccccccccccccccccccccccccccccccccccccccccccccccccccccccccccccccccccccccccccccccccccccccccccccccccccccc"
       inkscape:export-filename="/home/luis/sharpknocking logo.jpg"
       inkscape:export-xdpi="110.28138"
       inkscape:export-ydpi="110.28138" />
  </g>
</svg>
