<?xml version="1.0" encoding="UTF-8" standalone="no"?>
<!-- Created with Inkscape (http://www.inkscape.org/) -->
<svg
   xmlns:dc="http://purl.org/dc/elements/1.1/"
   xmlns:cc="http://web.resource.org/cc/"
   xmlns:rdf="http://www.w3.org/1999/02/22-rdf-syntax-ns#"
   xmlns:svg="http://www.w3.org/2000/svg"
   xmlns="http://www.w3.org/2000/svg"
   xmlns:xlink="http://www.w3.org/1999/xlink"
   xmlns:sodipodi="http://sodipodi.sourceforge.net/DTD/sodipodi-0.dtd"
   xmlns:inkscape="http://www.inkscape.org/namespaces/inkscape"
   width="210mm"
   height="297mm"
   id="svg2"
   sodipodi:version="0.32"
   inkscape:version="0.45"
   sodipodi:docbase="/home/luis/programacion/csl-csknocking-g/Common/Artwork"
   sodipodi:docname="sharpknocking.svg"
   inkscape:output_extension="org.inkscape.output.svg.inkscape"
   sodipodi:modified="TRUE">
  <defs
     id="defs4">
    <linearGradient
       id="linearGradient6609">
      <stop
         id="stop6611"
         offset="0"
         style="stop-color:#7f4f00;stop-opacity:1;" />
      <stop
         id="stop6613"
         offset="1"
         style="stop-color:#ffe78d;stop-opacity:1;" />
    </linearGradient>
    <linearGradient
       inkscape:collect="always"
       id="linearGradient4813">
      <stop
         style="stop-color:#ffe78d;stop-opacity:1;"
         offset="0"
         id="stop4815" />
      <stop
         style="stop-color:#ffe78d;stop-opacity:0;"
         offset="1"
         id="stop4817" />
    </linearGradient>
    <linearGradient
       inkscape:collect="always"
       xlink:href="#linearGradient4813"
       id="linearGradient4819"
       x1="350"
       y1="315.21933"
       x2="352.85715"
       y2="809.50507"
       gradientUnits="userSpaceOnUse" />
    <linearGradient
       inkscape:collect="always"
       xlink:href="#linearGradient6609"
       id="linearGradient6607"
       x1="61.42857"
       y1="408.07645"
       x2="144.78571"
       y2="388.79074"
       gradientUnits="userSpaceOnUse"
       gradientTransform="translate(-12.142858,7.1428572)" />
    <linearGradient
       inkscape:collect="always"
       xlink:href="#linearGradient6609"
       id="linearGradient11076"
       x1="155.24626"
       y1="530.4444"
       x2="379.53015"
       y2="462.58722"
       gradientUnits="userSpaceOnUse"
       gradientTransform="matrix(0.99875,0,0,1,2.2958427,1.4285715)" />
  </defs>
  <sodipodi:namedview
     id="base"
     pagecolor="#ffffff"
     bordercolor="#666666"
     borderopacity="1.0"
     inkscape:pageopacity="0.0"
     inkscape:pageshadow="2"
     inkscape:zoom="0.7"
     inkscape:cx="328.6992"
     inkscape:cy="633.62491"
     inkscape:document-units="px"
     inkscape:current-layer="layer1"
     inkscape:window-width="889"
     inkscape:window-height="639"
     inkscape:window-x="71"
     inkscape:window-y="69" />
  <metadata
     id="metadata7">
    <rdf:RDF>
      <cc:Work
         rdf:about="">
        <dc:format>image/svg+xml</dc:format>
        <dc:type
           rdf:resource="http://purl.org/dc/dcmitype/StillImage" />
      </cc:Work>
    </rdf:RDF>
  </metadata>
  <g
     inkscape:label="Capa 1"
     inkscape:groupmode="layer"
     id="layer1">
    <path
       style="fill:url(#linearGradient4819);fill-opacity:1.0;fill-rule:evenodd;stroke:none;stroke-width:1px;stroke-linecap:butt;stroke-linejoin:miter;stroke-opacity:1"
       d="M 222.85714,649.50504 C 124.28572,520.93361 132.71932,531.51262 119.28572,503.79076 C 79.456839,426.58717 67.577404,376.64916 67.857143,341.64789 C 85.280941,286.99932 135.86388,295.3734 152.06726,270.90116 C 168.27063,246.42891 175.09445,221.2532 180,195.93362 L 228.57143,166.6479 L 262.85714,190.93361 C 262.85714,190.93361 320,172.36218 368.57142,162.36218 C 390.428,157.86229 408.57143,189.50504 408.57143,189.50504 L 480,195.21933 L 580,280.93361 L 620,589.50504 L 688.57143,652.36218 C 441.90476,661.4098 431.78786,704.15005 222.85714,649.50504 z "
       id="path3041"
       sodipodi:nodetypes="cccscccscccccc"
       inkscape:export-filename="/home/luis/programacion/csl-csknocking-g/Common/Artwork/sharpknocking16.png"
       inkscape:export-xdpi="2.2056329"
       inkscape:export-ydpi="2.2056329" />
    <path
       style="opacity:0.54017861;fill:url(#linearGradient11076);fill-opacity:1;fill-rule:evenodd;stroke:none;stroke-width:1px;stroke-linecap:butt;stroke-linejoin:miter;stroke-opacity:1"
       d="M 232.96947,652.62424 C 127.38734,529.76711 107.38735,502.26711 107.38735,502.26711 C 116.18801,481.95289 58.114523,383.61844 65.190903,332.26711 C 82.201583,313.86635 92.480293,302.57345 118.13343,293.43976 C 167.09494,276.00721 172.33335,252.70759 185.88019,182.26712 L 235.81948,173.69568 L 270.06233,197.98139 C 270.06233,197.98139 327.13376,179.40996 375.64447,169.40996 C 397.47373,164.91007 415.59448,196.55282 415.59448,196.55282 L 486.93376,202.26711 L 586.80876,287.98139 L 626.75876,596.55282 L 689.17301,651.19572 C 524.68911,656.97932 426.80321,700.54235 232.96947,652.62424 z "
       id="path6615"
       sodipodi:nodetypes="cccscccscccccc"
       inkscape:export-filename="/home/luis/programacion/csl-csknocking-g/Common/Artwork/sharpknocking16.png"
       inkscape:export-xdpi="2.2056329"
       inkscape:export-ydpi="2.2056329" />
    <path
       style="fill:#000000;fill-opacity:1;fill-rule:nonzero;stroke:none;stroke-width:1px;stroke-linecap:butt;stroke-linejoin:miter;stroke-opacity:1"
       d="M 382.11161,154.65179 C 373.04117,155.09397 364.07234,155.20299 355.42411,158.65179 C 346.43443,161.84786 337.49062,165.15462 328.95536,169.46429 C 321.23617,173.03781 313.57675,176.80594 305.54911,179.65179 C 299.29194,181.32024 293.08106,183.34994 286.51786,183.33929 C 280.47291,182.93067 274.62386,182.89897 269.11161,179.83929 C 263.6263,176.15843 258.13447,172.62038 253.42411,167.87054 C 248.34179,164.37217 243.90784,160.64898 237.39286,160.27679 C 215.80773,161.8903 207.0423,166.49448 186.23661,180.96429 C 183.26935,182.59625 182.03467,183.44475 182.23661,183.68304 C 175.77526,188.22464 167.86498,194.55431 163.20536,200.12054 C 158.1839,207.21843 152.96296,213.91294 151.17411,222.74554 C 148.7276,233.5521 146.72268,244.4128 145.92411,255.49554 C 145.12792,263.26724 144.41499,271.02867 143.70536,278.80804 C 126.83724,284.4407 92.37626,295.67144 75.36161,308.58929 C 69.29509,314.68847 62.89214,320.39181 59.23661,328.43304 C 55.43731,337.01852 52.09873,345.63261 51.51786,355.15179 C 50.79181,365.59515 50.26513,376.03511 51.23661,386.49554 C 52.35288,397.49085 53.65789,408.4796 56.26786,419.24554 C 58.86686,430.12786 61.50863,441.0337 65.17411,451.62054 C 68.88987,462.1873 72.62884,472.74565 77.01786,483.05804 C 81.57665,493.21713 86.24323,503.32117 91.54911,513.12054 C 96.75687,522.62435 102.03918,532.07368 107.92411,541.18304 C 113.56314,549.86935 119.21034,558.57986 126.08036,566.37054 C 151.33317,599.84292 205.04214,627.22981 230.98661,658.96429 L 246.76786,646.18304 C 205.57309,598.71292 174.53557,591.72449 133.06697,522.06697 C 115.13745,483.07481 106.29833,458.92711 98.29911,432.49554 C 94.64623,421.90259 92.01985,411.0056 89.42411,400.12054 C 86.80093,389.33499 85.52969,378.3342 84.51786,367.30804 C 83.52503,356.78854 84.24252,346.26282 85.08036,335.77679 C 85.76853,326.17042 89.23962,317.48363 93.14286,308.83929 C 96.87391,300.77956 105.83094,299.6721 112.29911,295.68304 C 108.7002,296.63624 136.04397,288.0515 143.08036,285.83929 C 142.98046,286.96449 142.86665,288.08893 142.76786,289.21429 C 141.82702,298.45051 140.86005,307.69642 139.92411,316.93304 C 131.5783,316.5073 123.36989,314.66415 115.20536,312.90179 L 105.36161,318.55804 C 114.23148,320.06499 135.17305,328.0441 143.20982,332.34375 C 153.70634,361.72243 149.13592,391.55163 153.31697,431.6875 C 156.97212,411.21239 167.02143,347.4202 168.42411,336.58929 C 169.96401,325.60017 171.2502,314.58435 172.48661,303.55804 C 173.58053,292.40715 174.73442,281.23687 175.86161,270.08929 C 176.84722,258.84439 177.88053,247.63207 179.01786,236.40179 C 179.76382,225.22778 181.8878,214.33147 184.54911,203.49554 C 185.70043,198.83102 187.77593,194.70557 190.20536,190.80804 C 190.83973,191.21863 191.36051,191.69099 191.64286,192.27679 C 194.85608,198.87838 196.65524,205.73228 197.73661,213.05804 L 203.89286,208.90179 C 203.28454,200.53732 203.61233,192.59271 205.01786,184.33929 C 205.17144,183.20806 205.29003,182.0521 205.42411,180.90179 C 210.34408,182.12836 214.27942,185.18235 218.54911,187.99554 C 223.38932,192.57667 228.83444,196.22263 234.29911,199.93304 C 235.78665,200.81729 237.31992,201.42689 238.86161,201.90179 C 241.40805,203.23111 243.87263,204.55386 244.92411,206.96429 C 247.88045,217.37233 247.99055,228.09023 248.33036,238.83929 C 248.49179,244.56586 248.26731,250.3017 248.17411,256.02679 L 262.23661,247.90179 C 261.94497,242.35198 261.57767,236.80296 261.45536,231.24554 C 261.16347,219.83544 259.43588,218.85016 260.54911,207.49554 C 261.14625,203.29498 262.77582,203.71762 264.14286,201.49554 C 266.42827,200.88369 268.70584,200.21574 270.98661,199.58929 C 279.22338,196.55338 287.12803,192.72333 295.08036,189.02679 C 303.69016,184.66193 312.72716,181.32583 321.79911,178.08929 C 330.26464,174.68282 338.99445,174.70633 347.86161,174.43304 C 355.66509,174.74174 361.82995,178.6115 368.42411,182.15179 C 374.58145,186.96127 380.75772,191.69223 386.98661,196.40179 C 390.28721,198.82371 393.8592,200.73775 397.51786,202.43304 C 402.59063,206.66088 398.94943,210.05552 398.14286,212.37054 C 395.59754,218.59116 392.72891,224.67082 389.92411,230.77679 C 387.69123,234.78321 385.54951,238.84022 383.36161,242.87054 L 399.14286,233.77679 C 401.44898,229.553 403.48995,225.15448 406.39286,221.27679 C 410.01987,215.30558 411.70287,210.28511 417.89286,209.18304 C 421.72471,209.25619 425.51859,208.55302 429.54911,207.93304 C 435.94684,205.14602 442.60616,203.61144 449.33036,202.05804 C 455.56345,200.94297 459.87721,204.26137 465.14286,206.49554 C 470.21731,210.1989 473.91274,215.27714 477.86161,220.05804 C 482.05411,225.46258 486.89187,230.25271 491.64286,235.15179 C 492.4908,236.03246 493.38787,236.85946 494.29911,237.65179 C 498.66392,241.50025 504.27751,244.197 496.01786,255.33929 C 491.25343,261.39776 487.36518,268.01305 483.54911,274.68304 C 482.93156,275.91696 482.29164,277.1366 481.67411,278.37054 L 498.73661,268.52679 C 499.34035,267.30081 499.94538,266.0965 500.54911,264.87054 C 504.43146,258.18338 507.46845,248.47502 512.14286,249.12054 C 519.00545,252.02282 525.94586,254.70407 532.83036,257.55804 C 540.26371,261.08955 546.65384,266.18158 553.17411,271.08929 C 559.78842,276.34687 564.41427,283.34915 569.39286,290.02679 C 574.43602,297.36111 577.58373,305.60101 580.67411,313.87054 C 583.57863,322.74634 585.29415,331.93819 587.04911,341.08929 C 588.88923,350.85214 590.01108,360.71202 590.98661,370.58929 C 591.84533,380.92761 592.40975,391.29855 593.04911,401.65179 C 593.80233,412.35429 594.51471,423.05008 595.36161,433.74554 C 596.34769,444.70432 597.70885,455.627 598.95536,466.55804 C 600.23886,477.63028 601.1234,488.7252 601.92411,499.83929 C 602.61559,511.03612 602.82071,522.25143 602.86161,533.46429 C 602.63143,544.03069 602.57305,554.61667 602.54911,565.18304 C 602.48504,574.45771 601.6569,583.67744 600.76786,592.90179 C 600.41305,601.15882 597.36052,608.48778 594.48661,616.02679 C 592.23526,620.73615 588.89632,624.51297 585.33036,628.12054 C 584.84172,628.27685 584.35024,628.433 583.86161,628.58929 L 551.36161,647.33929 C 553.32216,646.77275 555.30732,646.21833 557.26786,645.65179 C 562.42761,643.6376 567.51356,641.41461 572.51786,639.02679 C 575.30522,638.53033 597.03071,626.724 599.14286,624.12054 C 625.34547,598.95448 644.90403,632.2526 668.98661,649.58929 C 687.02706,659.59552 674.12131,652.72251 693.64286,661.93304 L 703.58036,654.37054 C 670.83184,635.6835 659.5216,619.8818 644.54911,589.71429 C 641.29736,582.17651 638.38764,573.59553 636.86161,565.33929 C 636.54649,563.18529 636.16041,561.2633 635.73661,559.52679 C 635.9799,554.94488 636.14791,550.33651 636.17411,545.74554 C 636.019,535.277 635.77139,524.80783 635.98661,514.33929 C 635.95288,503.12201 635.73285,491.91605 635.04911,480.71429 C 634.25435,469.59478 633.4101,458.48075 632.14286,447.40179 C 630.91345,436.45601 629.5555,425.53349 628.61161,414.55804 C 627.79884,403.84176 627.10086,393.09434 626.39286,382.37054 C 625.79937,371.98927 625.28799,361.61374 624.48661,351.24554 C 623.55999,341.33611 622.49332,331.45706 620.73661,321.65179 C 619.05913,312.46233 617.44546,303.2226 614.58036,294.30804 C 611.55342,286.00993 608.43229,277.75344 603.45536,270.37054 C 598.54861,263.64156 593.99938,256.57942 587.36161,251.33929 C 580.84701,246.4171 574.48394,241.2968 567.01786,237.80804 C 559.50624,234.68358 551.91661,231.77721 544.48661,228.46429 C 538.09687,224.46014 531.48755,220.78652 526.23661,215.21429 C 521.56041,210.26521 516.83046,205.34299 512.67411,199.93304 C 508.81543,195.1306 505.19646,190.0389 500.33036,186.18304 C 494.92039,183.96464 490.53127,180.64251 484.14286,181.96429 C 477.43505,183.58463 470.77982,185.13005 464.36161,187.83929 C 457.31971,188.95022 450.76412,190.34287 443.70536,187.77679 C 435.94794,184.60609 428.02,181.81495 421.23661,176.65179 C 415.09451,171.90193 408.97816,167.09037 402.95536,162.18304 C 396.25764,158.65941 390.01949,154.8266 382.11161,154.65179 z M 344.17411,278.27679 L 307.33036,299.55804 C 308.35692,303.92631 308.11443,308.46093 308.26786,312.90179 C 308.79442,324.2019 309.04897,335.49448 309.11161,346.80804 C 297.6316,344.26714 286.18696,341.52088 275.20536,337.27679 C 270.61346,334.87727 265.69136,332.91461 261.67411,329.52679 L 224.89286,350.77679 C 230.43127,352.97 235.99479,354.84315 241.64286,356.65179 C 260.52984,360.29936 279.28099,364.58848 298.29911,367.49554 C 302.12697,368.19722 305.95477,368.8173 309.79911,369.37054 C 311.56243,398.51095 310.18832,427.69279 307.86161,456.77679 C 307.83688,457.21561 307.79313,457.6505 307.76786,458.08929 C 287.44344,453.15297 267.38355,447.01756 249.01786,437.12054 C 242.53406,432.96666 235.84766,428.94969 230.26786,423.62054 L 193.42411,444.87054 C 201.43864,448.15207 209.14856,452.07583 217.08036,455.55804 C 246.52237,464.29675 276.57785,470.55028 306.51786,477.27679 C 304.7395,500.88633 302.22573,524.41993 299.17411,547.90179 C 297.58995,560.83369 294.01977,573.27231 290.51786,585.74554 L 321.83036,567.65179 C 324.45283,555.69981 327.24273,543.79323 327.64286,531.46429 C 328.76289,515.05045 329.46323,498.64211 330.23661,482.21429 C 352.77557,486.49211 375.48465,489.72908 398.29911,492.12054 C 398.04085,494.60907 397.81056,497.10106 397.54911,499.58929 C 395.92507,520.18513 392.89809,540.52405 387.39286,560.43304 C 385.55159,565.78949 384.84024,567.91372 384.48661,568.96429 C 384.97801,567.38995 385.40838,565.66153 381.23661,576.58929 L 412.48661,558.55804 C 416.20984,547.8746 415.8011,549.59546 415.36161,551.15179 C 415.67444,550.12684 416.34232,548.04455 417.98661,542.77679 C 422.10978,526.81409 424.42933,510.69187 425.36161,494.30804 C 439.17255,495.15356 452.99086,496.01194 466.79911,496.90179 L 491.64286,482.55804 C 473.90111,481.79064 456.1543,481.04668 438.48661,479.15179 C 434.39924,478.74366 430.29181,478.33059 426.20536,477.90179 C 428.01828,454.43105 430.9292,431.08431 433.36161,407.68304 C 434.21539,397.38097 434.62435,387.05405 434.70536,376.71429 C 448.00684,377.3538 461.3137,378.07084 474.61161,378.77679 L 500.08036,364.08929 C 478.26669,364.27415 456.43472,363.94432 434.64286,362.93304 C 434.54489,357.98258 434.36896,353.03245 434.14286,348.08929 C 433.28809,336.369 432.79148,324.68932 432.95536,312.93304 C 432.775,308.07512 432.2979,303.11009 432.73661,298.27679 L 395.89286,319.55804 C 397.3167,323.88252 397.68945,328.43083 398.36161,332.90179 C 399.06354,342.28921 400.35337,351.57483 401.54911,360.90179 C 380.2858,359.24097 359.09254,356.82186 338.11161,352.96429 C 338.35487,349.54581 338.57688,346.13209 338.83036,342.71429 C 339.36552,326.07308 340.31212,309.40258 342.86161,292.93304 C 343.21611,288.05457 343.41928,283.11221 344.17411,278.27679 z M 336.76786,372.27679 C 357.71567,373.88293 378.77239,374.28561 399.73661,375.27679 C 400.977,375.31973 402.21505,375.38782 403.45536,375.43304 C 405.19434,391.76304 404.56071,408.2181 404.01786,424.62054 C 403.10843,441.41971 401.6828,458.19247 400.04911,474.93304 C 378.55864,472.27784 357.13769,468.97913 335.95536,464.40179 C 334.37627,464.05801 332.78906,463.71522 331.20536,463.37054 C 331.58468,456.43077 331.97938,449.49204 332.48661,442.55804 C 333.8487,419.12687 335.21411,395.69411 336.76786,372.27679 z "
       id="path2069"
       sodipodi:nodetypes="ccccccccccccccccccccccccccccccccccccccccccccccccccccccccccccccccccccccccccccccccccccccccccccccccccccccccccccccccccccccccccccccccccccccccccccccccccccccccccccccccccccccccccccccccccccccccccccccccc"
       inkscape:export-filename="/home/luis/programacion/csl-csknocking-g/Common/Artwork/sharpknocking16.png"
       inkscape:export-xdpi="2.2056329"
       inkscape:export-ydpi="2.2056329" />
  </g>
</svg>
